<?xml version="1.0" encoding="utf-8"?>
<!-- Generator: Adobe Illustrator 19.1.0, SVG Export Plug-In . SVG Version: 6.00 Build 0)  -->
<svg version="1.1" id="Layer_1" xmlns="http://www.w3.org/2000/svg" xmlns:xlink="http://www.w3.org/1999/xlink" x="0px" y="0px"
	 viewBox="0 0 1280 800" style="enable-background:new 0 0 1280 800;" xml:space="preserve">
<style type="text/css">
	.st0{fill:#C82128;}
	.st1{fill:#9597B7;}
	.st2{fill:#D2D1E8;}
	.st3{fill:#74748B;}
	.st4{fill:#C92027;}
	.st5{fill:#D15540;}
	.st6{fill:#DA7C63;}
	.st7{fill:#EFCCBE;}
	.st8{fill:#E4A28B;}
	.st9{fill:#222D64;}
	.st10{fill:#E9A04C;}
	.st11{fill:#D9EFF3;}
	.st12{fill:#FDCC85;}
	.st13{fill:#EDBA6A;}
	.st14{fill:#FFDEAF;}
	.st15{fill:#E2AB6A;}
	.st16{fill:#F6D5AF;}
	.st17{fill:#F3C793;}
	.st18{fill:#253F81;}
	.st19{fill:#769AD0;}
	.st20{fill:#446AB2;}
</style>
<g id="XMLID_23_">
	<path class="st0" d="M508.1,345.2v18.4h-0.8v-38.2h8.1c9,0,12.4,3.7,12.4,9.9c0,6.5-4.2,9.2-9.1,9.8l10.7,18.5h-1l-10.6-18.4H508.1
		z M527,335.3c0-5.7-3-9.1-11.6-9.1h-7.2v18.3h8.7C522.5,344.5,527,341.8,527,335.3z"/>
	<path class="st0" d="M531.6,364.9h-3.9l-10.6-18.4h-7.7v18.4h-3.3v-40.7h9.3c9,0,13.6,3.7,13.6,11.1c0,5.6-3,9.4-8.4,10.7
		L531.6,364.9z M509.4,343.2h7.4c3.3,0,8.9-1,8.9-7.9c0-3.9-1.2-7.9-10.4-7.9h-6V343.2z"/>
</g>
<g id="XMLID_27_">
	<path class="st0" d="M557.9,348.9c0,9.7-4.5,15.2-11.5,15.2c-7.1,0-11.4-5.6-11.4-15c0-9.7,4.6-15.2,11.5-15.2
		C553.5,334,557.9,339.4,557.9,348.9z M535.8,349.1c0,9,4,14.3,10.6,14.3c6.6,0,10.7-5.2,10.7-14.5c0-9-4-14.2-10.6-14.2
		C540.1,334.7,535.8,339.8,535.8,349.1z"/>
	<path class="st0" d="M546.4,365.4c-7.8,0-12.7-6.2-12.7-16.3c0-10.1,4.9-16.4,12.8-16.4c7.9,0,12.6,6.1,12.6,16.2
		C559.2,359.1,554.3,365.4,546.4,365.4z M546.5,336c-6,0-9.5,4.8-9.5,13.2c0,8.3,3.4,13.1,9.4,13.1c6,0,9.4-4.8,9.4-13.3
		C555.9,340.7,552.5,336,546.5,336z"/>
</g>
<g id="XMLID_30_">
	<path class="st0" d="M585.5,336.8l-0.5,0.5c-1.9-1.7-4-2.6-6.9-2.6c-6.5,0-10.8,5.2-10.8,14.5c0,9.2,4.5,14.2,10.7,14.2
		c3.1,0,5.4-1.1,7.3-2.8l0.5,0.6c-1.9,1.8-4.4,3-7.7,3c-6.8,0-11.6-5.4-11.6-14.9c0-9.5,4.5-15.3,11.6-15.3
		C581.1,334,583.4,334.9,585.5,336.8z"/>
	<path class="st0" d="M578.1,365.4c-7.8,0-12.9-6.3-12.9-16.2c0-10.2,4.9-16.5,12.9-16.5c3.3,0,5.8,1,8.2,3.1l0.9,0.8l-2.1,2.4
		l-0.9-0.9c-1.7-1.6-3.6-2.3-6.1-2.3c-6,0-9.6,5-9.6,13.3c0,8,3.6,12.9,9.5,12.9c2.6,0,4.5-0.8,6.4-2.5l1-0.9l2.1,2.5l-0.9,0.8
		C584.2,364.3,581.4,365.4,578.1,365.4z"/>
</g>
<g id="XMLID_41_">
	<path class="st0" d="M595.1,363.7v-41.1l0.8-0.1v41.2H595.1z M612.9,363.7h-1l-15.6-15.9l14.1-13.2h1l-14.1,13.2L612.9,363.7z"/>
	<polygon class="st0" points="615.8,364.9 611.4,364.9 597.2,350.4 597.2,364.9 593.9,364.9 593.9,321.5 597.2,321.1 597.2,345.2 
		609.9,333.3 614.6,333.3 599.1,347.8 	"/>
</g>
<g id="XMLID_44_">
	<path class="st0" d="M639.1,349.7h-20.6c0.2,9.1,4.4,13.7,10.6,13.7c3.6,0,5.8-1.2,8.4-3.2l0.4,0.6c-2.6,2.1-5.1,3.4-8.8,3.4
		c-6.9,0-11.4-5.4-11.4-14.8c0-9.6,4.4-15.4,11.1-15.4c7.1,0,10.3,5.7,10.3,13.6C639.2,348.4,639.1,349,639.1,349.7z M638.3,349
		c0-0.6,0-0.9,0-1.7c0-7.2-2.9-12.6-9.5-12.6c-6,0-10.3,4.9-10.4,14.3H638.3L638.3,349z"/>
	<path class="st0" d="M629.1,365.4c-7.8,0-12.6-6.1-12.6-16c0-10.3,4.7-16.6,12.4-16.6c7.2,0,11.6,5.6,11.6,14.9
		c0,0.8,0,1.5-0.1,2.2l-0.1,1.1h-20.4c0.5,7.2,3.8,11.3,9.3,11.3c3.3,0,5.4-1.1,7.6-3l1-0.8l1.9,2.6l-0.9,0.8
		C635.6,364.4,632.8,365.4,629.1,365.4z M619.8,347.8h17.3c0-0.1,0-0.3,0-0.4c0-4.2-1.1-11.4-8.2-11.4
		C623.6,336,620.2,340.4,619.8,347.8z"/>
</g>
<g id="XMLID_47_">
	<path class="st0" d="M655.6,364.2c-3.8,0-6.1-2.4-6.1-7v-21.9h-4.8v-0.7h4.8v-7.4l0.8-0.1v7.5h8.1l-0.1,0.7h-8v21.9
		c0,4.1,1.9,6.3,5.4,6.3c2.2,0,3.7-0.7,5.1-1.5l0.4,0.6C659.6,363.5,657.9,364.2,655.6,364.2z"/>
	<path class="st0" d="M655.6,365.4c-4.6,0-7.3-3.1-7.3-8.2v-20.7h-4.8v-3.2h4.8V326l3.3-0.3v7.6h8.4l-0.5,3.2h-7.8v20.6
		c0,5.1,3.1,5.1,4.1,5.1c1.6,0,3-0.4,4.4-1.3l1.1-0.7l1.7,2.7l-1.1,0.6C660.4,364.5,658.5,365.4,655.6,365.4z"/>
</g>
<g id="XMLID_49_">
	<path class="st0" d="M522.6,412.9l-0.2-0.6c5.4-2.3,6.5-4.5,6.5-9.7v-33.3h0.8v33.4C529.6,408.1,528.5,410.4,522.6,412.9z"/>
	<path class="st0" d="M521.9,414.6l-1.2-2.9l1.1-0.5c5-2.2,5.8-4,5.8-8.6V368h3.3v34.6c0,6.3-1.8,8.8-7.8,11.4L521.9,414.6z"/>
</g>
<g id="XMLID_51_">
	<path class="st0" d="M561.2,407.5l0-6.2c-2.1,3.9-5.4,6.7-10.3,6.7c-5.1,0-8.1-3.1-8.1-8.9v-20.7h0.8V399c0,5.5,2.8,8.2,7.4,8.2
		c4.7,0,7.8-2.9,10.1-7v-21.9h0.8v29.1H561.2z"/>
	<path class="st0" d="M550.9,409.3c-5.8,0-9.3-3.8-9.3-10.2v-21.9h3.3V399c0,4.6,2.1,7,6.2,7c3.6,0,6.5-2,8.8-6v-22.8h3.3v31.6H560
		l0-3.5C557.6,407.9,554.5,409.3,550.9,409.3z"/>
</g>
<g id="XMLID_54_">
	<path class="st0" d="M609.8,386.8v20.7H609v-20.6c0-5.3-2.1-8.3-6.4-8.3c-4.1,0-7.2,2.9-9.6,7.3v21.6h-0.8v-20.9c0-4.9-2.1-8-6.4-8
		c-4.1,0-7.2,2.9-9.6,7.3v21.6h-0.8v-29.1h0.7l0.1,6.3c2.3-4.2,5.5-6.9,9.6-6.9c4.2,0,6.6,2.7,7.1,7c2.3-4.3,5.6-7,9.7-7
		C607.3,377.8,609.8,381.3,609.8,386.8z"/>
	<path class="st0" d="M611,408.7h-3.3v-21.9c0-4.7-1.7-7.1-5.1-7.1c-3.2,0-6,2.1-8.3,6.4v22.6H591v-22.2c0-4.5-1.7-6.8-5.1-6.8
		c-3.2,0-6,2.1-8.3,6.4v22.6h-3.3v-31.6h3.2l0,3.7c2.4-2.8,5.2-4.2,8.4-4.2c3.7,0,6.4,1.9,7.6,5.1c2.5-3.4,5.6-5.1,9.1-5.1
		c5.2,0,8.4,3.8,8.4,10.2V408.7z"/>
</g>
<g id="XMLID_58_">
	<path class="st0" d="M643.6,392.7c0,9.5-3.6,15.4-10.4,15.4c-4.3,0-7.4-2.4-9.4-5.4v15.6l-0.8,0.1v-40h0.7l0.1,5
		c2.3-3.2,5.3-5.5,9.7-5.5C640.1,377.8,643.6,383.2,643.6,392.7z M642.8,392.7c0-9.1-3.2-14.1-9.3-14.1c-4.4,0-7.2,2.3-9.7,5.7v17.3
		c2.2,3.4,5.2,5.7,9.4,5.7C639.5,407.3,642.8,401.9,642.8,392.7z"/>
	<path class="st0" d="M621.8,419.9v-42.7h3.2l0,2.9c2.4-2.3,5.3-3.5,8.5-3.5c7.2,0,11.4,5.9,11.4,16.1c0,10.5-4.2,16.6-11.6,16.6
		c-3.6,0-6.3-1.5-8.2-3.2v13.3L621.8,419.9z M625.1,401.2c2.2,3.2,4.9,4.8,8.2,4.8c7.3,0,8.4-8.4,8.4-13.4c0-5.9-1.4-12.9-8.1-12.9
		c-3.9,0-6.2,1.9-8.4,4.9V401.2z"/>
</g>
<g id="XMLID_14_">
	<g id="XMLID_83_">
		<polygon id="XMLID_143_" class="st1" points="692.6,384.5 686.3,386.2 689.8,397.5 694.5,390.7 		"/>
		<polygon id="XMLID_142_" class="st2" points="687.3,389.5 693.3,386.8 692.6,384.5 686.3,386.2 		"/>
		<polygon id="XMLID_99_" class="st3" points="693.2,388.6 688.7,393.7 689.8,397.5 694.5,390.7 		"/>
		<polygon id="XMLID_98_" class="st4" points="733.8,335.2 717,338.7 690.1,379.2 697.3,401 732.9,345.7 		"/>
		<polygon id="XMLID_97_" class="st5" points="733.8,335.2 719.3,341.3 691.2,382.7 693.2,388.6 721.9,344.3 		"/>
		<polygon id="XMLID_96_" class="st6" points="733.8,335.2 719.3,341.3 691.2,382.7 690.1,379.2 717,338.7 		"/>
		<polygon id="XMLID_95_" class="st7" points="717,338.7 719.3,341.3 733.8,335.2 		"/>
		<polygon id="XMLID_94_" class="st8" points="719.3,341.3 721.9,344.3 733.8,335.2 		"/>
		<polygon id="XMLID_93_" class="st9" points="682.6,281 761.1,320.5 762,346.1 618.1,518.5 732,345.7 732.8,330.6 		"/>
		<polygon id="XMLID_92_" class="st10" points="769.7,309.8 772.5,327.6 782.2,331.8 790.7,317.8 790.7,305.3 780.4,298.8 		"/>
		<polygon id="XMLID_91_" class="st11" points="655.7,415.8 686.1,394.8 685,390.8 		"/>
		<polygon id="XMLID_90_" class="st12" points="780.4,298.8 781.3,307.1 776.3,313.3 769.7,309.8 		"/>
		<polygon id="XMLID_89_" class="st13" points="772.5,327.6 777.3,320.8 776.3,313.3 769.7,309.8 		"/>
		<polygon id="XMLID_88_" class="st14" points="790.7,305.3 786.3,310.9 781.3,307.1 780.4,298.8 		"/>
		<polygon id="XMLID_87_" class="st15" points="782.2,331.8 781.9,323 777.3,320.8 772.5,327.6 		"/>
		<polygon id="XMLID_86_" class="st16" points="790.7,317.8 785.3,316.8 786.3,310.9 790.7,305.3 		"/>
		<polygon id="XMLID_85_" class="st17" points="782.2,331.8 790.7,317.8 785.3,316.8 781.9,323 		"/>
		<polygon id="XMLID_84_" class="st18" points="682.6,281 750.6,322.3 755.3,342.2 618.1,518.5 762,346.1 761.1,320.5 		"/>
	</g>
	<polygon id="XMLID_82_" class="st19" points="682.6,281 750.6,322.3 761.1,320.5 	"/>
	<polygon id="XMLID_81_" class="st20" points="750.6,322.3 755.3,342.2 762,346.1 761.1,320.5 	"/>
</g>
</svg>
